<?xml version="1.0" encoding="UTF-8" standalone="no"?><!DOCTYPE svg PUBLIC "-//W3C//DTD SVG 1.1//EN" "http://www.w3.org/Graphics/SVG/1.1/DTD/svg11.dtd"><!-- Generated by graphviz version 2.40.1 (20161225.0304)
 --><!-- Title: package Pages: 1 --><svg xmlns="http://www.w3.org/2000/svg" xmlns:xlink="http://www.w3.org/1999/xlink" width="1466pt" height="1156pt" viewBox="0.00 0.00 1466.00 1156.00">
<g id="graph0" class="graph" transform="scale(1 1) rotate(0) translate(4 1152)">
<title>package</title>
<polygon fill="#ffffff" stroke="transparent" points="-4,4 -4,-1152 1462,-1152 1462,4 -4,4"/>
<!-- Animal -->
<g id="node1" class="node">
<title>Animal</title>
<polygon fill="none" stroke="#000000" points="820.355,-.1991 820.355,-124.9991 936.6636,-124.9991 936.6636,-.1991 820.355,-.1991"/>
<text text-anchor="middle" x="878.5093" y="-108.3991" font-family="Times,serif" font-size="14.00" fill="#000000">Animal</text>
<polyline fill="none" stroke="#000000" points="820.355,-100.1991 936.6636,-100.1991 "/>
<text text-anchor="start" x="828.355" y="-83.5991" font-family="Times,serif" font-size="14.00" fill="#000000">+ Animal() : </text>
<polyline fill="none" stroke="#000000" points="820.355,-75.3991 936.6636,-75.3991 "/>
<text text-anchor="start" x="828.355" y="-58.7991" font-family="Times,serif" font-size="14.00" fill="#000000">+ grunt() : String</text>
<text text-anchor="start" x="828.355" y="-41.9991" font-family="Times,serif" font-size="14.00" fill="#000000"> - meow() : String</text>
<text text-anchor="start" x="828.355" y="-25.1991" font-family="Times,serif" font-size="14.00" fill="#000000"> # bark() : String</text>
<text text-anchor="start" x="828.355" y="-8.3991" font-family="Times,serif" font-size="14.00" fill="#000000"> ~ moo() : String</text>
</g>
<!-- FileNotFoundOrPermissionDeniedException -->
<g id="node2" class="node">
<title>FileNotFoundOrPermissionDeniedException</title>
<polygon fill="none" stroke="#000000" points="280.922,-1031.1991 280.922,-1080.7991 615.4864,-1080.7991 615.4864,-1031.1991 280.922,-1031.1991"/>
<text text-anchor="middle" x="448.2042" y="-1064.1991" font-family="Times,serif" font-size="14.00" fill="#000000">FileNotFoundOrPermissionDeniedException</text>
<polyline fill="none" stroke="#000000" points="280.922,-1055.9991 615.4864,-1055.9991 "/>
<text text-anchor="start" x="288.922" y="-1039.3991" font-family="Times,serif" font-size="14.00" fill="#000000">+ FileNotFoundOrPermissionDeniedException(String) : </text>
</g>
<!-- Fly -->
<g id="node3" class="node">
<title>Fly</title>
<polygon fill="none" stroke="#000000" points="1016.1476,-1014.015 1016.1476,-1088.415 1129.0836,-1088.415 1129.0836,-1014.015 1016.1476,-1014.015"/>
<text text-anchor="middle" x="1072.6156" y="-1071.815" font-family="Times,serif" font-size="14.00" fill="#000000">Fly</text>
<polyline fill="none" stroke="#000000" points="1016.1476,-1063.615 1129.0836,-1063.615 "/>
<text text-anchor="start" x="1024.1476" y="-1047.015" font-family="Times,serif" font-size="14.00" fill="#000000">+ Fly() : </text>
<polyline fill="none" stroke="#000000" points="1016.1476,-1038.815 1129.0836,-1038.815 "/>
<text text-anchor="start" x="1024.1476" y="-1022.215" font-family="Times,serif" font-size="14.00" fill="#000000">+ move() : String</text>
</g>
<!-- HeroAction -->
<g id="node5" class="node">
<title>HeroAction</title>
<polygon fill="none" stroke="#000000" points="1179.5648,-953.0759 1179.5648,-1019.4759 1292.5008,-1019.4759 1292.5008,-953.0759 1179.5648,-953.0759"/>
<text text-anchor="middle" x="1236.0328" y="-1002.8759" font-family="Times,serif" font-size="14.00" fill="#000000">&lt;&lt;interface&gt;&gt;</text>
<text text-anchor="middle" x="1236.0328" y="-986.0759" font-family="Times,serif" font-size="14.00" fill="#000000">HeroAction</text>
<polyline fill="none" stroke="#000000" points="1179.5648,-977.8759 1292.5008,-977.8759 "/>
<text text-anchor="start" x="1187.5648" y="-961.2759" font-family="Times,serif" font-size="14.00" fill="#000000">+ move() : String</text>
</g>
<!-- Fly&#45;&gt;HeroAction -->
<g id="edge1" class="edge">
<title>Fly-&gt;HeroAction</title>
<path fill="none" stroke="#008200" stroke-dasharray="5,2" d="M1119.9733,-1013.8426C1119.9733,-1001.0976 1119.9733,-990 1119.9733,-990 1119.9733,-990 1169.363,-990 1169.363,-990"/>
<polygon fill="#008200" stroke="#008200" points="1169.3631,-993.5001 1179.363,-990 1169.363,-986.5001 1169.3631,-993.5001"/>
</g>
<!-- Hero -->
<g id="node4" class="node">
<title>Hero</title>
<polygon fill="none" stroke="#000000" points="945.8003,-871.8003 945.8003,-971.0003 1101.7527,-971.0003 1101.7527,-871.8003 945.8003,-871.8003"/>
<text text-anchor="middle" x="1023.7765" y="-954.4003" font-family="Times,serif" font-size="14.00" fill="#000000">Hero</text>
<polyline fill="none" stroke="#000000" points="945.8003,-946.2003 1101.7527,-946.2003 "/>
<text text-anchor="start" x="953.8003" y="-929.6003" font-family="Times,serif" font-size="14.00" fill="#000000">+ Hero() : </text>
<polyline fill="none" stroke="#000000" points="945.8003,-921.4003 1101.7527,-921.4003 "/>
<text text-anchor="start" x="953.8003" y="-904.8003" font-family="Times,serif" font-size="14.00" fill="#000000">+ runAction() : String</text>
<polyline fill="none" stroke="#000000" points="945.8003,-896.6003 1101.7527,-896.6003 "/>
<text text-anchor="start" x="953.8003" y="-880.0003" font-family="Times,serif" font-size="14.00" fill="#000000">heroAction : HeroAction</text>
</g>
<!-- Hero&#45;&gt;HeroAction -->
<g id="edge2" class="edge">
<title>Hero-&gt;HeroAction</title>
<path fill="none" stroke="#595959" d="M1113.9086,-962C1113.9086,-962 1169.3105,-962 1169.3105,-962"/>
<polygon fill="#595959" stroke="#595959" points="1167.3105,-962 1173.3105,-958 1179.3105,-962 1173.3105,-966 1167.3105,-962"/>
<polygon fill="#595959" stroke="#595959" points="1101.9086,-962 1111.9086,-957.5 1106.9086,-962 1111.9086,-962 1111.9086,-962 1111.9086,-962 1106.9086,-962 1111.9086,-966.5 1101.9086,-962 1101.9086,-962"/>
<text text-anchor="middle" x="1122.9044" y="-983" font-family="Times,serif" font-size="14.00" fill="#000000">activity</text>
<text text-anchor="middle" x="1122.9044" y="-966.2" font-family="Times,serif" font-size="14.00" fill="#000000">1</text>
<text text-anchor="middle" x="1175.8105" y="-966.2" font-family="Times,serif" font-size="14.00" fill="#000000">1</text>
</g>
<!-- HeroConsoleApp -->
<g id="node6" class="node">
<title>HeroConsoleApp</title>
<polygon fill="none" stroke="#000000" points="937.4285,-780.6219 937.4285,-855.0219 1083.0097,-855.0219 1083.0097,-780.6219 937.4285,-780.6219"/>
<text text-anchor="middle" x="1010.2191" y="-838.4219" font-family="Times,serif" font-size="14.00" fill="#000000">HeroConsoleApp</text>
<polyline fill="none" stroke="#000000" points="937.4285,-830.2219 1083.0097,-830.2219 "/>
<text text-anchor="start" x="945.4285" y="-813.6219" font-family="Times,serif" font-size="14.00" fill="#000000">+ HeroConsoleApp() : </text>
<polyline fill="none" stroke="#000000" points="937.4285,-805.4219 1083.0097,-805.4219 "/>
<text text-anchor="start" x="945.4285" y="-788.8219" font-family="Times,serif" font-size="14.00" fill="#000000">+ main(String[]) : void</text>
</g>
<!-- HeroConsoleApp&#45;&gt;Fly -->
<g id="edge3" class="edge">
<title>HeroConsoleApp-&gt;Fly</title>
<path fill="none" stroke="#595959" stroke-dasharray="5,2" d="M1083.0952,-846C1098.835,-846 1110.863,-846 1110.863,-846 1110.863,-846 1110.863,-1003.5754 1110.863,-1003.5754"/>
<polygon fill="#595959" stroke="#595959" points="1110.863,-1013.5754 1106.3631,-1003.5754 1110.863,-1008.5754 1110.8631,-1003.5754 1110.8631,-1003.5754 1110.8631,-1003.5754 1110.863,-1008.5754 1115.3631,-1003.5754 1110.863,-1013.5754 1110.863,-1013.5754"/>
<text text-anchor="middle" x="1125.0457" y="-898.3038" font-family="Times,serif" font-size="14.00" fill="#000000">«create»</text>
</g>
<!-- HeroConsoleApp&#45;&gt;Hero -->
<g id="edge4" class="edge">
<title>HeroConsoleApp-&gt;Hero</title>
<path fill="none" stroke="#595959" stroke-dasharray="5,2" d="M1014.405,-855.2161C1014.405,-855.2161 1014.405,-861.621 1014.405,-861.621"/>
<polygon fill="#595959" stroke="#595959" points="1014.405,-871.621 1009.9051,-861.621 1014.405,-866.621 1014.4051,-861.621 1014.4051,-861.621 1014.4051,-861.621 1014.405,-866.621 1018.9051,-861.6211 1014.405,-871.621 1014.405,-871.621"/>
<text text-anchor="middle" x="986.0396" y="-862.6186" font-family="Times,serif" font-size="14.00" fill="#000000">«create»</text>
</g>
<!-- Ride -->
<g id="node14" class="node">
<title>Ride</title>
<polygon fill="none" stroke="#000000" points="1153.4947,-855.065 1153.4947,-929.465 1266.4307,-929.465 1266.4307,-855.065 1153.4947,-855.065"/>
<text text-anchor="middle" x="1209.9627" y="-912.865" font-family="Times,serif" font-size="14.00" fill="#000000">Ride</text>
<polyline fill="none" stroke="#000000" points="1153.4947,-904.665 1266.4307,-904.665 "/>
<text text-anchor="start" x="1161.4947" y="-888.065" font-family="Times,serif" font-size="14.00" fill="#000000">+ Ride() : </text>
<polyline fill="none" stroke="#000000" points="1153.4947,-879.865 1266.4307,-879.865 "/>
<text text-anchor="start" x="1161.4947" y="-863.265" font-family="Times,serif" font-size="14.00" fill="#000000">+ move() : String</text>
</g>
<!-- HeroConsoleApp&#45;&gt;Ride -->
<g id="edge5" class="edge">
<title>HeroConsoleApp-&gt;Ride</title>
<path fill="none" stroke="#595959" stroke-dasharray="5,2" d="M1083.3582,-838C1121.3812,-838 1160.0077,-838 1160.0077,-838 1160.0077,-838 1160.0077,-844.8723 1160.0077,-844.8723"/>
<polygon fill="#595959" stroke="#595959" points="1160.0077,-854.8723 1155.5078,-844.8723 1160.0077,-849.8723 1160.0078,-844.8723 1160.0078,-844.8723 1160.0078,-844.8723 1160.0077,-849.8723 1164.5078,-844.8724 1160.0077,-854.8723 1160.0077,-854.8723"/>
<text text-anchor="middle" x="1153.4845" y="-842.2" font-family="Times,serif" font-size="14.00" fill="#000000">«create»</text>
</g>
<!-- Walk -->
<g id="node19" class="node">
<title>Walk</title>
<polygon fill="none" stroke="#000000" points="1179.579,-755.1785 1179.579,-829.5785 1292.515,-829.5785 1292.515,-755.1785 1179.579,-755.1785"/>
<text text-anchor="middle" x="1236.047" y="-812.9785" font-family="Times,serif" font-size="14.00" fill="#000000">Walk</text>
<polyline fill="none" stroke="#000000" points="1179.579,-804.7785 1292.515,-804.7785 "/>
<text text-anchor="start" x="1187.579" y="-788.1785" font-family="Times,serif" font-size="14.00" fill="#000000">+ Walk() : </text>
<polyline fill="none" stroke="#000000" points="1179.579,-779.9785 1292.515,-779.9785 "/>
<text text-anchor="start" x="1187.579" y="-763.3785" font-family="Times,serif" font-size="14.00" fill="#000000">+ move() : String</text>
</g>
<!-- HeroConsoleApp&#45;&gt;Walk -->
<g id="edge6" class="edge">
<title>HeroConsoleApp-&gt;Walk</title>
<path fill="none" stroke="#595959" stroke-dasharray="5,2" d="M1083.2271,-805C1083.2271,-805 1169.3924,-805 1169.3924,-805"/>
<polygon fill="#595959" stroke="#595959" points="1179.3924,-805 1169.3924,-809.5001 1174.3924,-805 1169.3924,-805.0001 1169.3924,-805.0001 1169.3924,-805.0001 1174.3924,-805 1169.3923,-800.5001 1179.3924,-805 1179.3924,-805"/>
<text text-anchor="middle" x="1140.4924" y="-792.4" font-family="Times,serif" font-size="14.00" fill="#000000">«create»</text>
</g>
<!-- IncorrectFileException -->
<g id="node7" class="node">
<title>IncorrectFileException</title>
<polygon fill="none" stroke="#000000" points="311.7492,-183.7338 311.7492,-233.3338 522.6376,-233.3338 522.6376,-183.7338 311.7492,-183.7338"/>
<text text-anchor="middle" x="417.1934" y="-216.7338" font-family="Times,serif" font-size="14.00" fill="#000000">IncorrectFileException</text>
<polyline fill="none" stroke="#000000" points="311.7492,-208.5338 522.6376,-208.5338 "/>
<text text-anchor="start" x="319.7492" y="-191.9338" font-family="Times,serif" font-size="14.00" fill="#000000">+ IncorrectFileException(String) : </text>
</g>
<!-- MainApp -->
<g id="node8" class="node">
<title>MainApp</title>
<polygon fill="none" stroke="#000000" points="768.2409,-546.8388 768.2409,-621.2388 912.2793,-621.2388 912.2793,-546.8388 768.2409,-546.8388"/>
<text text-anchor="middle" x="840.2601" y="-604.6388" font-family="Times,serif" font-size="14.00" fill="#000000">MainApp</text>
<polyline fill="none" stroke="#000000" points="768.2409,-596.4388 912.2793,-596.4388 "/>
<text text-anchor="start" x="776.2409" y="-579.8388" font-family="Times,serif" font-size="14.00" fill="#000000">~ MainApp() : </text>
<polyline fill="none" stroke="#000000" points="768.2409,-571.6388 912.2793,-571.6388 "/>
<text text-anchor="start" x="776.2409" y="-555.0388" font-family="Times,serif" font-size="14.00" fill="#000000">+ main(String[]) : void</text>
</g>
<!-- MainApp&#45;&gt;HeroConsoleApp -->
<g id="edge7" class="edge">
<title>MainApp-&gt;HeroConsoleApp</title>
<path fill="none" stroke="#595959" stroke-dasharray="5,2" d="M896.7245,-621.3368C896.7245,-680.6892 896.7245,-790 896.7245,-790 896.7245,-790 927.3781,-790 927.3781,-790"/>
<polygon fill="#595959" stroke="#595959" points="937.3781,-790 927.3781,-794.5001 932.3781,-790 927.3781,-790.0001 927.3781,-790.0001 927.3781,-790.0001 932.3781,-790 927.3781,-785.5001 937.3781,-790 937.3781,-790"/>
<text text-anchor="middle" x="868.3591" y="-725.1952" font-family="Times,serif" font-size="14.00" fill="#000000">«create»</text>
</g>
<!-- MatrixConsoleApp -->
<g id="node10" class="node">
<title>MatrixConsoleApp</title>
<polygon fill="none" stroke="#000000" points="529.8219,-646.7553 529.8219,-721.1553 685.5223,-721.1553 685.5223,-646.7553 529.8219,-646.7553"/>
<text text-anchor="middle" x="607.6721" y="-704.5553" font-family="Times,serif" font-size="14.00" fill="#000000">MatrixConsoleApp</text>
<polyline fill="none" stroke="#000000" points="529.8219,-696.3553 685.5223,-696.3553 "/>
<text text-anchor="start" x="537.8219" y="-679.7553" font-family="Times,serif" font-size="14.00" fill="#000000">+ MatrixConsoleApp() : </text>
<polyline fill="none" stroke="#000000" points="529.8219,-671.5553 685.5223,-671.5553 "/>
<text text-anchor="start" x="537.8219" y="-654.9553" font-family="Times,serif" font-size="14.00" fill="#000000">+ main(String[]) : void</text>
</g>
<!-- MainApp&#45;&gt;MatrixConsoleApp -->
<g id="edge8" class="edge">
<title>MainApp-&gt;MatrixConsoleApp</title>
<path fill="none" stroke="#595959" stroke-dasharray="5,2" d="M767.8108,-596C725.5121,-596 680.3935,-596 680.3935,-596 680.3935,-596 680.3935,-636.6543 680.3935,-636.6543"/>
<polygon fill="#595959" stroke="#595959" points="680.3935,-646.6543 675.8936,-636.6543 680.3936,-641.6543 680.3936,-636.6543 680.3936,-636.6543 680.3936,-636.6543 680.3936,-641.6543 684.8936,-636.6544 680.3935,-646.6543 680.3935,-646.6543"/>
<text text-anchor="middle" x="675.4096" y="-600.2" font-family="Times,serif" font-size="14.00" fill="#000000">«create»</text>
</g>
<!-- MethodsConsoleApp -->
<g id="node12" class="node">
<title>MethodsConsoleApp</title>
<polygon fill="none" stroke="#000000" points="773.728,-274.5464 773.728,-348.9464 940.3218,-348.9464 940.3218,-274.5464 773.728,-274.5464"/>
<text text-anchor="middle" x="857.0249" y="-332.3464" font-family="Times,serif" font-size="14.00" fill="#000000">MethodsConsoleApp</text>
<polyline fill="none" stroke="#000000" points="773.728,-324.1464 940.3218,-324.1464 "/>
<text text-anchor="start" x="781.728" y="-307.5464" font-family="Times,serif" font-size="14.00" fill="#000000">+ MethodsConsoleApp() : </text>
<polyline fill="none" stroke="#000000" points="773.728,-299.3464 940.3218,-299.3464 "/>
<text text-anchor="start" x="781.728" y="-282.7464" font-family="Times,serif" font-size="14.00" fill="#000000">+ main(String[]) : void</text>
</g>
<!-- MainApp&#45;&gt;MethodsConsoleApp -->
<g id="edge9" class="edge">
<title>MainApp-&gt;MethodsConsoleApp</title>
<path fill="none" stroke="#595959" stroke-dasharray="5,2" d="M819.9118,-546.7487C819.9118,-546.7487 819.9118,-359.0221 819.9118,-359.0221"/>
<polygon fill="#595959" stroke="#595959" points="819.9118,-349.0221 824.4119,-359.0221 819.9118,-354.0221 819.9119,-359.0221 819.9119,-359.0221 819.9119,-359.0221 819.9118,-354.0221 815.4119,-359.0221 819.9118,-349.0221 819.9118,-349.0221"/>
<text text-anchor="middle" x="791.5464" y="-457.0854" font-family="Times,serif" font-size="14.00" fill="#000000">«create»</text>
</g>
<!-- StreamApiConsoleApp -->
<g id="node15" class="node">
<title>StreamApiConsoleApp</title>
<polygon fill="none" stroke="#000000" points="953.1584,-338.8496 953.1584,-471.6496 1166.5206,-471.6496 1166.5206,-338.8496 953.1584,-338.8496"/>
<text text-anchor="middle" x="1059.8395" y="-455.0496" font-family="Times,serif" font-size="14.00" fill="#000000">StreamApiConsoleApp</text>
<polyline fill="none" stroke="#000000" points="953.1584,-446.8496 1166.5206,-446.8496 "/>
<text text-anchor="start" x="961.1584" y="-430.2496" font-family="Times,serif" font-size="14.00" fill="#000000">+ StreamApiConsoleApp() : </text>
<polyline fill="none" stroke="#000000" points="953.1584,-422.0496 1166.5206,-422.0496 "/>
<text text-anchor="start" x="961.1584" y="-405.4496" font-family="Times,serif" font-size="14.00" fill="#000000">- getStringList(char) : List&lt;String&gt;</text>
<text text-anchor="start" x="961.1584" y="-388.6496" font-family="Times,serif" font-size="14.00" fill="#000000"> + main(String[]) : void</text>
<polyline fill="none" stroke="#000000" points="953.1584,-380.4496 1166.5206,-380.4496 "/>
<text text-anchor="start" x="961.1584" y="-363.8496" font-family="Times,serif" font-size="14.00" fill="#000000">integerArray : int[]</text>
<text text-anchor="start" x="961.1584" y="-347.0496" font-family="Times,serif" font-size="14.00" fill="#000000"> integerList : List&lt;Integer&gt;</text>
</g>
<!-- MainApp&#45;&gt;StreamApiConsoleApp -->
<g id="edge10" class="edge">
<title>MainApp-&gt;StreamApiConsoleApp</title>
<path fill="none" stroke="#595959" stroke-dasharray="5,2" d="M866.0956,-546.6847C866.0956,-512.7628 866.0956,-468 866.0956,-468 866.0956,-468 943.0499,-468 943.0499,-468"/>
<polygon fill="#595959" stroke="#595959" points="953.0499,-468 943.0499,-472.5001 948.0499,-468 943.0499,-468.0001 943.0499,-468.0001 943.0499,-468.0001 948.0499,-468 943.0498,-463.5001 953.0499,-468 953.0499,-468"/>
<text text-anchor="middle" x="894.461" y="-473.0652" font-family="Times,serif" font-size="14.00" fill="#000000">«create»</text>
</g>
<!-- TranslatorConsoleApp -->
<g id="node18" class="node">
<title>TranslatorConsoleApp</title>
<polygon fill="none" stroke="#000000" points="500.1366,-390.1519 500.1366,-464.5519 675.2648,-464.5519 675.2648,-390.1519 500.1366,-390.1519"/>
<text text-anchor="middle" x="587.7007" y="-447.9519" font-family="Times,serif" font-size="14.00" fill="#000000">TranslatorConsoleApp</text>
<polyline fill="none" stroke="#000000" points="500.1366,-439.7519 675.2648,-439.7519 "/>
<text text-anchor="start" x="508.1366" y="-423.1519" font-family="Times,serif" font-size="14.00" fill="#000000">+ TranslatorConsoleApp() : </text>
<polyline fill="none" stroke="#000000" points="500.1366,-414.9519 675.2648,-414.9519 "/>
<text text-anchor="start" x="508.1366" y="-398.3519" font-family="Times,serif" font-size="14.00" fill="#000000">+ main(String[]) : void</text>
</g>
<!-- MainApp&#45;&gt;TranslatorConsoleApp -->
<g id="edge11" class="edge">
<title>MainApp-&gt;TranslatorConsoleApp</title>
<path fill="none" stroke="#595959" stroke-dasharray="5,2" d="M767.9691,-571C698.0315,-571 602.5433,-571 602.5433,-571 602.5433,-571 602.5433,-474.7187 602.5433,-474.7187"/>
<polygon fill="#595959" stroke="#595959" points="602.5433,-464.7187 607.0434,-474.7187 602.5434,-469.7187 602.5434,-474.7187 602.5434,-474.7187 602.5434,-474.7187 602.5434,-469.7187 598.0434,-474.7188 602.5433,-464.7187 602.5433,-464.7187"/>
<text text-anchor="middle" x="608.7502" y="-575.2" font-family="Times,serif" font-size="14.00" fill="#000000">«create»</text>
</g>
<!-- MatrixCalculation -->
<g id="node9" class="node">
<title>MatrixCalculation</title>
<polygon fill="none" stroke="#000000" points="270.176,-732.9309 270.176,-1008.1309 609.387,-1008.1309 609.387,-732.9309 270.176,-732.9309"/>
<text text-anchor="middle" x="439.7815" y="-991.5309" font-family="Times,serif" font-size="14.00" fill="#000000">MatrixCalculation</text>
<polyline fill="none" stroke="#000000" points="270.176,-983.3309 609.387,-983.3309 "/>
<text text-anchor="start" x="278.176" y="-966.7309" font-family="Times,serif" font-size="14.00" fill="#000000">+ MatrixCalculation(JPanel) : </text>
<polyline fill="none" stroke="#000000" points="270.176,-958.5309 609.387,-958.5309 "/>
<text text-anchor="start" x="278.176" y="-941.9309" font-family="Times,serif" font-size="14.00" fill="#000000">- exception : String</text>
<polyline fill="none" stroke="#000000" points="270.176,-933.7309 609.387,-933.7309 "/>
<text text-anchor="start" x="278.176" y="-917.1309" font-family="Times,serif" font-size="14.00" fill="#000000">+ writeMatrix(double[][], String, String, boolean) : String</text>
<text text-anchor="start" x="278.176" y="-900.3309" font-family="Times,serif" font-size="14.00" fill="#000000"> + getZeroDevisionException(double, int, int) : void</text>
<text text-anchor="start" x="278.176" y="-883.5309" font-family="Times,serif" font-size="14.00" fill="#000000"> + writeMatrix(int[][], String, String, boolean) : String</text>
<text text-anchor="start" x="278.176" y="-866.7309" font-family="Times,serif" font-size="14.00" fill="#000000"> + readMatrixSize(String) : int</text>
<text text-anchor="start" x="278.176" y="-849.9309" font-family="Times,serif" font-size="14.00" fill="#000000"> + roundedTwoDecimalPlaces(double) : double</text>
<text text-anchor="start" x="278.176" y="-833.1309" font-family="Times,serif" font-size="14.00" fill="#000000"> + devideElementsMatrix(int[][]) : double[][]</text>
<text text-anchor="start" x="278.176" y="-816.3309" font-family="Times,serif" font-size="14.00" fill="#000000"> + rotateMatrix(int[][]) : int[][]</text>
<text text-anchor="start" x="278.176" y="-799.5309" font-family="Times,serif" font-size="14.00" fill="#000000"> - displayException() : void</text>
<text text-anchor="start" x="278.176" y="-782.7309" font-family="Times,serif" font-size="14.00" fill="#000000"> + createMatrix(int) : int[][]</text>
<text text-anchor="start" x="278.176" y="-765.9309" font-family="Times,serif" font-size="14.00" fill="#000000"> + clearException() : void</text>
<polyline fill="none" stroke="#000000" points="270.176,-757.7309 609.387,-757.7309 "/>
<text text-anchor="start" x="278.176" y="-741.1309" font-family="Times,serif" font-size="14.00" fill="#000000">exception : String</text>
</g>
<!-- MatrixCalculation&#45;&gt;FileNotFoundOrPermissionDeniedException -->
<g id="edge12" class="edge">
<title>MatrixCalculation-&gt;FileNotFoundOrPermissionDeniedException</title>
<path fill="none" stroke="#595959" stroke-dasharray="5,2" d="M445.1545,-1008.2364C445.1545,-1008.2364 445.1545,-1021.1635 445.1545,-1021.1635"/>
<polygon fill="#595959" stroke="#595959" points="445.1545,-1031.1635 440.6546,-1021.1634 445.1546,-1026.1635 445.1546,-1021.1635 445.1546,-1021.1635 445.1546,-1021.1635 445.1546,-1026.1635 449.6546,-1021.1635 445.1545,-1031.1635 445.1545,-1031.1635"/>
<text text-anchor="middle" x="473.5199" y="-1018.8999" font-family="Times,serif" font-size="14.00" fill="#000000">«create»</text>
</g>
<!-- MatrixSizeExceededException -->
<g id="node11" class="node">
<title>MatrixSizeExceededException</title>
<polygon fill="none" stroke="#000000" points="625.9615,-801.7574 625.9615,-851.3574 881.1697,-851.3574 881.1697,-801.7574 625.9615,-801.7574"/>
<text text-anchor="middle" x="753.5656" y="-834.7574" font-family="Times,serif" font-size="14.00" fill="#000000">MatrixSizeExceededException</text>
<polyline fill="none" stroke="#000000" points="625.9615,-826.5574 881.1697,-826.5574 "/>
<text text-anchor="start" x="633.9615" y="-809.9574" font-family="Times,serif" font-size="14.00" fill="#000000">+ MatrixSizeExceededException(String) : </text>
</g>
<!-- MatrixCalculation&#45;&gt;MatrixSizeExceededException -->
<g id="edge13" class="edge">
<title>MatrixCalculation-&gt;MatrixSizeExceededException</title>
<path fill="none" stroke="#595959" stroke-dasharray="5,2" d="M609.5308,-826C609.5308,-826 615.9023,-826 615.9023,-826"/>
<polygon fill="#595959" stroke="#595959" points="625.9023,-826 615.9023,-830.5001 620.9023,-826 615.9023,-826.0001 615.9023,-826.0001 615.9023,-826.0001 620.9023,-826 615.9022,-821.5001 625.9023,-826 625.9023,-826"/>
<text text-anchor="middle" x="641.0819" y="-830.2" font-family="Times,serif" font-size="14.00" fill="#000000">«create»</text>
</g>
<!-- ZeroDevisionException -->
<g id="node20" class="node">
<title>ZeroDevisionException</title>
<polygon fill="none" stroke="#000000" points=".47,-1098.2824 .47,-1147.8824 216.0386,-1147.8824 216.0386,-1098.2824 .47,-1098.2824"/>
<text text-anchor="middle" x="108.2543" y="-1131.2824" font-family="Times,serif" font-size="14.00" fill="#000000">ZeroDevisionException</text>
<polyline fill="none" stroke="#000000" points=".47,-1123.0824 216.0386,-1123.0824 "/>
<text text-anchor="start" x="8.47" y="-1106.4824" font-family="Times,serif" font-size="14.00" fill="#000000">+ ZeroDevisionException(String) : </text>
</g>
<!-- MatrixCalculation&#45;&gt;ZeroDevisionException -->
<g id="edge14" class="edge">
<title>MatrixCalculation-&gt;ZeroDevisionException</title>
<path fill="none" stroke="#595959" stroke-dasharray="5,2" d="M275.549,-1008.2161C275.549,-1067.2944 275.549,-1123 275.549,-1123 275.549,-1123 226.0961,-1123 226.0961,-1123"/>
<polygon fill="#595959" stroke="#595959" points="216.0961,-1123 226.0961,-1118.5001 221.0961,-1123 226.0961,-1123.0001 226.0961,-1123.0001 226.0961,-1123.0001 221.0961,-1123 226.0961,-1127.5001 216.0961,-1123 216.0961,-1123"/>
<text text-anchor="middle" x="247.1836" y="-1094.5345" font-family="Times,serif" font-size="14.00" fill="#000000">«create»</text>
</g>
<!-- MatrixConsoleApp&#45;&gt;MatrixCalculation -->
<g id="edge15" class="edge">
<title>MatrixConsoleApp-&gt;MatrixCalculation</title>
<path fill="none" stroke="#595959" stroke-dasharray="5,2" d="M569.6045,-721.2632C569.6045,-721.2632 569.6045,-722.6047 569.6045,-722.6047"/>
<polygon fill="#595959" stroke="#595959" points="569.6045,-732.6047 565.1046,-722.6047 569.6045,-727.6047 569.6046,-722.6047 569.6046,-722.6047 569.6046,-722.6047 569.6045,-727.6047 574.1046,-722.6048 569.6045,-732.6047 569.6045,-732.6047"/>
<text text-anchor="middle" x="597.9699" y="-726.134" font-family="Times,serif" font-size="14.00" fill="#000000">«create»</text>
</g>
<!-- MethodsConsoleApp&#45;&gt;Animal -->
<g id="edge16" class="edge">
<title>MethodsConsoleApp-&gt;Animal</title>
<path fill="none" stroke="#595959" stroke-dasharray="5,2" d="M878.5093,-274.4465C878.5093,-274.4465 878.5093,-135.3413 878.5093,-135.3413"/>
<polygon fill="#595959" stroke="#595959" points="878.5093,-125.3413 883.0094,-135.3413 878.5094,-130.3413 878.5094,-135.3413 878.5094,-135.3413 878.5094,-135.3413 878.5094,-130.3413 874.0094,-135.3414 878.5093,-125.3413 878.5093,-125.3413"/>
<text text-anchor="middle" x="850.1439" y="-209.0939" font-family="Times,serif" font-size="14.00" fill="#000000">«create»</text>
</g>
<!-- RepeatCallAnnotation -->
<g id="node13" class="node">
<title>RepeatCallAnnotation</title>
<polygon fill="none" stroke="#000000" points="311.6399,-624.4409 311.6399,-690.8409 452.8363,-690.8409 452.8363,-624.4409 311.6399,-624.4409"/>
<text text-anchor="middle" x="382.2381" y="-674.2409" font-family="Times,serif" font-size="14.00" fill="#000000">&lt;&lt;annotation&gt;&gt;</text>
<text text-anchor="middle" x="382.2381" y="-657.4409" font-family="Times,serif" font-size="14.00" fill="#000000">RepeatCallAnnotation</text>
<polyline fill="none" stroke="#000000" points="311.6399,-649.2409 452.8363,-649.2409 "/>
<text text-anchor="start" x="319.6399" y="-632.6409" font-family="Times,serif" font-size="14.00" fill="#000000">+ count() : int</text>
</g>
<!-- Ride&#45;&gt;HeroAction -->
<g id="edge17" class="edge">
<title>Ride-&gt;HeroAction</title>
<path fill="none" stroke="#008200" stroke-dasharray="5,2" d="M1222.9978,-929.6907C1222.9978,-929.6907 1222.9978,-942.9337 1222.9978,-942.9337"/>
<polygon fill="#008200" stroke="#008200" points="1219.4979,-942.9337 1222.9978,-952.9337 1226.4979,-942.9337 1219.4979,-942.9337"/>
</g>
<!-- StreamApiMethods -->
<g id="node16" class="node">
<title>StreamApiMethods</title>
<polygon fill="none" stroke="#000000" points="1092.3445,-78.0409 1092.3445,-253.2409 1458.1317,-253.2409 1458.1317,-78.0409 1092.3445,-78.0409"/>
<text text-anchor="middle" x="1275.2381" y="-236.6409" font-family="Times,serif" font-size="14.00" fill="#000000">StreamApiMethods</text>
<polyline fill="none" stroke="#000000" points="1092.3445,-228.4409 1458.1317,-228.4409 "/>
<text text-anchor="start" x="1100.3445" y="-211.8409" font-family="Times,serif" font-size="14.00" fill="#000000">+ StreamApiMethods() : </text>
<polyline fill="none" stroke="#000000" points="1092.3445,-203.6409 1458.1317,-203.6409 "/>
<text text-anchor="start" x="1100.3445" y="-187.0409" font-family="Times,serif" font-size="14.00" fill="#000000">+ getLastElementOfCollection(Collection&lt;T&gt;) : T</text>
<text text-anchor="start" x="1100.3445" y="-170.2409" font-family="Times,serif" font-size="14.00" fill="#000000"> + getAverageValue(List&lt;Integer&gt;) : double</text>
<text text-anchor="start" x="1100.3445" y="-153.4409" font-family="Times,serif" font-size="14.00" fill="#000000"> + getSortedStrings(Collection&lt;String&gt;, String) : List&lt;String&gt;</text>
<text text-anchor="start" x="1100.3445" y="-136.6409" font-family="Times,serif" font-size="14.00" fill="#000000"> + getSumEvenNumber(int[]) : int</text>
<text text-anchor="start" x="1100.3445" y="-119.8409" font-family="Times,serif" font-size="14.00" fill="#000000"> + getStringMap(List&lt;String&gt;) : Map&lt;Character, String&gt;</text>
<text text-anchor="start" x="1100.3445" y="-103.0409" font-family="Times,serif" font-size="14.00" fill="#000000"> + getUppercaseStrings(List&lt;String&gt;) : List&lt;String&gt;</text>
<text text-anchor="start" x="1100.3445" y="-86.2409" font-family="Times,serif" font-size="14.00" fill="#000000"> + getSquaresList(List&lt;Integer&gt;) : List&lt;Integer&gt;</text>
</g>
<!-- Translator -->
<g id="node17" class="node">
<title>Translator</title>
<polygon fill="none" stroke="#000000" points="164.4954,-287.7545 164.4954,-462.1545 385.8838,-462.1545 385.8838,-287.7545 164.4954,-287.7545"/>
<text text-anchor="middle" x="275.1896" y="-445.5545" font-family="Times,serif" font-size="14.00" fill="#000000">Translator</text>
<polyline fill="none" stroke="#000000" points="164.4954,-437.3545 385.8838,-437.3545 "/>
<text text-anchor="start" x="172.4954" y="-420.7545" font-family="Times,serif" font-size="14.00" fill="#000000">+ Translator() : </text>
<polyline fill="none" stroke="#000000" points="164.4954,-412.5545 385.8838,-412.5545 "/>
<text text-anchor="start" x="172.4954" y="-395.9545" font-family="Times,serif" font-size="14.00" fill="#000000">- textTranslatedOutput : String</text>
<polyline fill="none" stroke="#000000" points="164.4954,-387.7545 385.8838,-387.7545 "/>
<text text-anchor="start" x="172.4954" y="-371.1545" font-family="Times,serif" font-size="14.00" fill="#000000">+ loadDictionary(String) : void</text>
<text text-anchor="start" x="172.4954" y="-354.3545" font-family="Times,serif" font-size="14.00" fill="#000000"> + getTranslatedText(String[]) : void</text>
<text text-anchor="start" x="172.4954" y="-337.5545" font-family="Times,serif" font-size="14.00" fill="#000000"> + loadText(String) : void</text>
<polyline fill="none" stroke="#000000" points="164.4954,-329.3545 385.8838,-329.3545 "/>
<text text-anchor="start" x="172.4954" y="-312.7545" font-family="Times,serif" font-size="14.00" fill="#000000">textTranslatedOutput : String</text>
<text text-anchor="start" x="172.4954" y="-295.9545" font-family="Times,serif" font-size="14.00" fill="#000000"> arrayFromString : String[]</text>
</g>
<!-- TranslatorConsoleApp&#45;&gt;IncorrectFileException -->
<g id="edge18" class="edge">
<title>TranslatorConsoleApp-&gt;IncorrectFileException</title>
<path fill="none" stroke="#595959" stroke-dasharray="5,2" d="M511.3871,-389.7357C511.3871,-389.7357 511.3871,-243.4236 511.3871,-243.4236"/>
<polygon fill="#595959" stroke="#595959" points="511.3871,-233.4236 515.8872,-243.4236 511.3871,-238.4236 511.3872,-243.4236 511.3872,-243.4236 511.3872,-243.4236 511.3871,-238.4236 506.8872,-243.4237 511.3871,-233.4236 511.3871,-233.4236"/>
<text text-anchor="middle" x="483.0217" y="-320.7797" font-family="Times,serif" font-size="14.00" fill="#000000">«create»</text>
</g>
<!-- TranslatorConsoleApp&#45;&gt;Translator -->
<g id="edge19" class="edge">
<title>TranslatorConsoleApp-&gt;Translator</title>
<path fill="none" stroke="#595959" stroke-dasharray="5,2" d="M499.8173,-426C499.8173,-426 396.116,-426 396.116,-426"/>
<polygon fill="#595959" stroke="#595959" points="386.116,-426 396.116,-421.5001 391.116,-426 396.116,-426.0001 396.116,-426.0001 396.116,-426.0001 391.116,-426 396.1159,-430.5001 386.116,-426 386.116,-426"/>
<text text-anchor="middle" x="419.6012" y="-430.2" font-family="Times,serif" font-size="14.00" fill="#000000">«create»</text>
</g>
<!-- Walk&#45;&gt;HeroAction -->
<g id="edge20" class="edge">
<title>Walk-&gt;HeroAction</title>
<path fill="none" stroke="#008200" stroke-dasharray="5,2" d="M1279.4658,-829.7639C1279.4658,-829.7639 1279.4658,-942.8886 1279.4658,-942.8886"/>
<polygon fill="#008200" stroke="#008200" points="1275.9659,-942.8885 1279.4658,-952.8886 1282.9659,-942.8886 1275.9659,-942.8885"/>
</g>
</g>
</svg>